<svg xmlns="http://www.w3.org/2000/svg" viewBox="0 0 470.22 154.05"><defs><style>.cls-1{fill:#304852;}.cls-2{fill:#62a2d7;}</style></defs><g id="Layer_2" data-name="Layer 2"><g id="Ebene_1" data-name="Ebene 1"><path class="cls-1" d="M40.3,37.78a1.62,1.62,0,0,1-1.49.9A3.36,3.36,0,0,1,37,37.87a27.18,27.18,0,0,0-3-1.81,24.38,24.38,0,0,0-4.57-1.82,23.8,23.8,0,0,0-6.61-.8,19.28,19.28,0,0,0-6.38,1,15.9,15.9,0,0,0-4.92,2.69,11.92,11.92,0,0,0-3.15,3.92,10.53,10.53,0,0,0-1.1,4.7,8,8,0,0,0,1.56,5,13.32,13.32,0,0,0,4,3.43,29.14,29.14,0,0,0,5.73,2.47q3.24,1,6.58,2.07t6.57,2.3a23.89,23.89,0,0,1,5.74,3.14,15.26,15.26,0,0,1,4.05,4.6,13.11,13.11,0,0,1,1.55,6.61,20.31,20.31,0,0,1-1.49,7.84,17.45,17.45,0,0,1-4.37,6.29,21.22,21.22,0,0,1-7.09,4.21,27.73,27.73,0,0,1-9.66,1.55A28.87,28.87,0,0,1,8.81,93.14,32.58,32.58,0,0,1,0,87.47l1.43-2.2a2.42,2.42,0,0,1,.74-.78,2.17,2.17,0,0,1,1.13-.26,3.45,3.45,0,0,1,2.05,1,22.4,22.4,0,0,0,3.2,2.24,27.41,27.41,0,0,0,5,2.23,22.23,22.23,0,0,0,7.29,1A21.07,21.07,0,0,0,28,89.65a15.15,15.15,0,0,0,5.19-3.08A12.85,12.85,0,0,0,36.32,82a14.61,14.61,0,0,0,1.07-5.54,8.9,8.9,0,0,0-1.56-5.38,13.34,13.34,0,0,0-4.08-3.63A28.71,28.71,0,0,0,26,64.93c-2.14-.69-4.34-1.39-6.58-2.08S15,61.41,12.86,60.58a23.48,23.48,0,0,1-5.73-3.11,14.81,14.81,0,0,1-4.08-4.56A13.22,13.22,0,0,1,1.49,46.2,15.44,15.44,0,0,1,3,39.59,16.69,16.69,0,0,1,7.23,34a21,21,0,0,1,6.7-3.83,26.3,26.3,0,0,1,8.88-1.42,30.16,30.16,0,0,1,10.46,1.68,24.86,24.86,0,0,1,8.33,5.19Z"/><path class="cls-1" d="M65.9,41.4a34.15,34.15,0,0,1,10-9.26A24.54,24.54,0,0,1,88.77,28.7q11.85,0,18.5,8.23t6.64,24.69a45.51,45.51,0,0,1-1.85,13.19,31.21,31.21,0,0,1-5.44,10.62,25.8,25.8,0,0,1-8.81,7.1,26.67,26.67,0,0,1-12,2.59,25.08,25.08,0,0,1-11.34-2.4,23.27,23.27,0,0,1-8.29-7.06v31.43H59.94V29.81h3.43a1.72,1.72,0,0,1,1.88,1.62Zm.26,38.82a27,27,0,0,0,3.92,4.7A20.11,20.11,0,0,0,74.38,88a17.7,17.7,0,0,0,4.83,1.71,26.92,26.92,0,0,0,5.41.52,22.66,22.66,0,0,0,10-2.07,19.6,19.6,0,0,0,7.16-5.87,26.36,26.36,0,0,0,4.34-9.07,43.72,43.72,0,0,0,1.46-11.63q0-14.38-5.31-21.15T87,33.69A21.16,21.16,0,0,0,75.42,37a32.75,32.75,0,0,0-9.26,9.2Z"/><path class="cls-1" d="M138.21,0V94.28H132V0Z"/><path class="cls-1" d="M169.57,7.58a4.83,4.83,0,0,1-.49,2.17,6.25,6.25,0,0,1-1.26,1.78A5.93,5.93,0,0,1,166,12.77a5.6,5.6,0,0,1-4.4,0,6.05,6.05,0,0,1-1.82-1.24,6,6,0,0,1-1.23-1.78,5.24,5.24,0,0,1-.45-2.17,5.66,5.66,0,0,1,.45-2.23,5.7,5.7,0,0,1,3-3.08,5.49,5.49,0,0,1,4.4,0,5.73,5.73,0,0,1,1.82,1.23,6.06,6.06,0,0,1,1.26,1.85A5.21,5.21,0,0,1,169.57,7.58Zm-2.66,22.23V94.28h-6.15V29.81Z"/><path class="cls-1" d="M194.77,41.08a36.68,36.68,0,0,1,10.34-8.94,25.69,25.69,0,0,1,13-3.37,24.29,24.29,0,0,1,9.37,1.68,17.3,17.3,0,0,1,6.7,4.86,21.63,21.63,0,0,1,4,7.65,34.6,34.6,0,0,1,1.36,10.11V94.28h-6.22V53.07q0-9.07-4.15-14.22t-12.63-5.16a22.86,22.86,0,0,0-11.76,3.21,33.25,33.25,0,0,0-9.75,8.91V94.28h-6.22V29.81h3.43a1.72,1.72,0,0,1,1.88,1.62Z"/><path class="cls-1" d="M277.13,95.31q-6.56,0-10.21-3.62t-3.66-11.21V36.42H254a1.72,1.72,0,0,1-1.17-.39,1.38,1.38,0,0,1-.45-1.1v-2.4l11-.78L265,8.68a2.23,2.23,0,0,1,.51-1,1.36,1.36,0,0,1,1.11-.46h2.91V31.81h20.35v4.61H269.48V80.15a13.75,13.75,0,0,0,.68,4.57A8.54,8.54,0,0,0,272,87.86a7.41,7.41,0,0,0,2.82,1.82,10.2,10.2,0,0,0,3.5.58,10.84,10.84,0,0,0,4-.68,16.43,16.43,0,0,0,2.91-1.49,19.49,19.49,0,0,0,2-1.49,2.24,2.24,0,0,1,1.23-.68,1.42,1.42,0,0,1,1,.65l1.68,2.72A17.94,17.94,0,0,1,285,93.66,19.53,19.53,0,0,1,277.13,95.31Z"/><path class="cls-2" d="M306.48,44a37.17,37.17,0,0,1,5-5.9,30.92,30.92,0,0,1,5.93-4.5A29.46,29.46,0,0,1,324,30.75a26,26,0,0,1,7.2-1Q341.8,29.74,347,36t5.22,17.56V94.28h-1.56V53.59a35.31,35.31,0,0,0-1.16-9.5,18.85,18.85,0,0,0-3.6-7.09,15.57,15.57,0,0,0-6.09-4.44A22.33,22.33,0,0,0,331.24,31a25.35,25.35,0,0,0-13.74,4,37.63,37.63,0,0,0-11,10.95V94.28h-1.55V30.78h.39c.6,0,.91.34.91,1Z"/><path class="cls-2" d="M421.37,86.76a14.87,14.87,0,0,1-3.28,2.82A29.39,29.39,0,0,1,413,92.27a38.29,38.29,0,0,1-6.44,2,32.93,32.93,0,0,1-7.19.78,28.65,28.65,0,0,1-11.73-2.3,23.7,23.7,0,0,1-8.78-6.65,30.42,30.42,0,0,1-5.54-10.62,48.07,48.07,0,0,1-2-14.26,41.37,41.37,0,0,1,1.88-12.79,28.41,28.41,0,0,1,5.45-9.95A24.6,24.6,0,0,1,387.38,32a28.44,28.44,0,0,1,11.7-2.3,25,25,0,0,1,9.39,1.78,21.39,21.39,0,0,1,7.68,5.28,25.22,25.22,0,0,1,5.15,8.59,33.71,33.71,0,0,1,1.88,11.7.56.56,0,0,1-.23.48.9.9,0,0,1-.55.16H373c0,.61-.08,1.19-.1,1.75s0,1.15,0,1.75a47,47,0,0,0,1.88,14,28.74,28.74,0,0,0,5.34,10.17,22.64,22.64,0,0,0,8.36,6.25,26.75,26.75,0,0,0,10.86,2.14,32.15,32.15,0,0,0,9.2-1.17A33.26,33.26,0,0,0,415,90a24.32,24.32,0,0,0,4-2.59,5.69,5.69,0,0,1,1.62-1.17.78.78,0,0,1,.52.26Zm.38-30.19A31.67,31.67,0,0,0,420,45.65a23,23,0,0,0-4.83-8A20.55,20.55,0,0,0,408,32.72,23.37,23.37,0,0,0,399.08,31a27.56,27.56,0,0,0-10.27,1.81A22.55,22.55,0,0,0,380.93,38a25.51,25.51,0,0,0-5.28,8.06,36.21,36.21,0,0,0-2.56,10.47Z"/><path class="cls-2" d="M457.65,95.31c-3.72,0-6.63-1-8.75-3s-3.17-5.38-3.17-10V34.8h-10.5c-.61,0-.91-.22-.91-.65v-.39l11.41-.26L446.25,8a1.25,1.25,0,0,1,.16-.62.52.52,0,0,1,.48-.29h.39V33.5h21.64v1.3H447.28V82.23a16.14,16.14,0,0,0,.81,5.47,9.53,9.53,0,0,0,2.24,3.63,8.71,8.71,0,0,0,3.3,2,12.28,12.28,0,0,0,4,.65,12.45,12.45,0,0,0,4.76-.84,18.92,18.92,0,0,0,3.47-1.82,18,18,0,0,0,2.3-1.81q.87-.84,1.26-.84A.73.73,0,0,1,470,89l.26.26a13.84,13.84,0,0,1-2.36,2.43,15.83,15.83,0,0,1-3.05,1.95,17.14,17.14,0,0,1-3.5,1.26A15.4,15.4,0,0,1,457.65,95.31Z"/><path class="cls-1" d="M142.57,116.23v30h-.13c-.19,0-.29-.11-.29-.33l-.08-4a11,11,0,0,1-3.32,3.32,7.82,7.82,0,0,1-4.26,1.22,7.38,7.38,0,0,1-6.07-2.55q-2.1-2.55-2.1-7.86a15.08,15.08,0,0,1,.56-4.15,9.84,9.84,0,0,1,1.69-3.36,8.1,8.1,0,0,1,2.8-2.25,8.76,8.76,0,0,1,3.91-.82,7.51,7.51,0,0,1,6.79,3.64V116.23Zm-.5,13.56a10.93,10.93,0,0,0-1.41-1.81,6.57,6.57,0,0,0-3.35-1.88,9.37,9.37,0,0,0-2-.21,8.34,8.34,0,0,0-3.73.78,7.39,7.39,0,0,0-2.63,2.16,9.37,9.37,0,0,0-1.58,3.23,15,15,0,0,0-.52,4q0,5.08,2,7.54a6.85,6.85,0,0,0,5.72,2.45,7.51,7.51,0,0,0,4.21-1.27,11.39,11.39,0,0,0,3.37-3.49Z"/><path class="cls-1" d="M151.9,118.23a1,1,0,0,1-.37.78,1.13,1.13,0,0,1-.8.34,1.11,1.11,0,0,1-.82-.34,1.08,1.08,0,0,1-.35-.78,1.2,1.2,0,0,1,1.17-1.17,1.14,1.14,0,0,1,.8.35A1.07,1.07,0,0,1,151.9,118.23Zm-.92,7.58v20.41h-.5V125.81Z"/><path class="cls-1" d="M174.6,126.81v.08a.27.27,0,0,1-.1.21.35.35,0,0,1-.23.09l-4.09.08a5.79,5.79,0,0,1,1.43,2.06,6.8,6.8,0,0,1,.49,2.65,6.87,6.87,0,0,1-.49,2.65,5.87,5.87,0,0,1-1.39,2.05A6.31,6.31,0,0,1,168,138a8,8,0,0,1-2.85.47,9,9,0,0,1-1.93-.19,8.14,8.14,0,0,1-1.66-.58,5.51,5.51,0,0,0-1.7,1.46,2.79,2.79,0,0,0-.67,1.69,2,2,0,0,0,.64,1.59,4.14,4.14,0,0,0,1.71.82,12.78,12.78,0,0,0,2.42.35l2.77.13c.94,0,1.87.11,2.77.21a9.26,9.26,0,0,1,2.41.57,4.25,4.25,0,0,1,1.71,1.21,3.23,3.23,0,0,1,.65,2.12,4.58,4.58,0,0,1-.64,2.34,6.53,6.53,0,0,1-1.79,2,9.31,9.31,0,0,1-2.79,1.37,12.24,12.24,0,0,1-3.65.51,13.85,13.85,0,0,1-3.65-.43,9.13,9.13,0,0,1-2.67-1.19,5.28,5.28,0,0,1-1.63-1.75,4.34,4.34,0,0,1-.55-2.13,4.16,4.16,0,0,1,.31-1.61,4.41,4.41,0,0,1,.89-1.38,6.23,6.23,0,0,1,1.38-1.13,8.83,8.83,0,0,1,1.81-.83,4.42,4.42,0,0,1-1.85-.93,2.32,2.32,0,0,1-.71-1.82A2.43,2.43,0,0,1,159,140a4.44,4.44,0,0,1,.49-.9,5,5,0,0,1,.76-.86,4.94,4.94,0,0,1,1-.71,5.75,5.75,0,0,1-2.18-2.25,6.8,6.8,0,0,1-.76-3.27,7,7,0,0,1,.48-2.64,5.71,5.71,0,0,1,1.38-2,6.48,6.48,0,0,1,2.18-1.33,8.13,8.13,0,0,1,2.88-.48,8.27,8.27,0,0,1,2.46.34,6.51,6.51,0,0,1,2,1Zm-.75,21a2.88,2.88,0,0,0-.57-1.87,3.85,3.85,0,0,0-1.53-1.08,8.57,8.57,0,0,0-2.19-.53c-.82-.1-1.67-.17-2.56-.22l-2.65-.14a17,17,0,0,1-2.41-.27,12.68,12.68,0,0,0-1.82.82,5.72,5.72,0,0,0-1.42,1.06,4.45,4.45,0,0,0-.93,1.33,3.85,3.85,0,0,0-.33,1.6,3.7,3.7,0,0,0,.56,2,5.32,5.32,0,0,0,1.59,1.62,8.38,8.38,0,0,0,2.51,1.08,13.13,13.13,0,0,0,3.34.4,11.81,11.81,0,0,0,3.16-.43,9.85,9.85,0,0,0,2.69-1.19,6.22,6.22,0,0,0,1.86-1.82A4.16,4.16,0,0,0,173.85,147.85ZM171.6,132a6.6,6.6,0,0,0-.45-2.48,5.43,5.43,0,0,0-1.28-1.93,5.73,5.73,0,0,0-2-1.24,8.29,8.29,0,0,0-5.33,0,5.73,5.73,0,0,0-2,1.24,5.43,5.43,0,0,0-1.28,1.93,7,7,0,0,0,0,4.95,5.35,5.35,0,0,0,1.28,1.93,5.59,5.59,0,0,0,2,1.24,7.71,7.71,0,0,0,2.67.44,7.8,7.8,0,0,0,2.7-.44,5.55,5.55,0,0,0,2-1.24,5.3,5.3,0,0,0,1.26-1.93A6.78,6.78,0,0,0,171.6,132Z"/><path class="cls-1" d="M181.47,118.23a1.06,1.06,0,0,1-.36.78,1.15,1.15,0,0,1-.8.34,1.13,1.13,0,0,1-.83-.34,1.07,1.07,0,0,1-.34-.78,1.11,1.11,0,0,1,.34-.82,1.14,1.14,0,0,1,.83-.35,1.16,1.16,0,0,1,.8.35A1.09,1.09,0,0,1,181.47,118.23Zm-.91,7.58v20.41h-.5V125.81Z"/><path class="cls-1" d="M193.45,146.55a3.89,3.89,0,0,1-2.81-1,4.34,4.34,0,0,1-1-3.23V127.1h-3.38c-.19,0-.29-.07-.29-.21v-.12l3.67-.08.16-8.21a.46.46,0,0,1,.05-.2.18.18,0,0,1,.16-.09h.13v8.5h6.95v.41h-6.95v15.25a5.06,5.06,0,0,0,.26,1.76,3,3,0,0,0,.71,1.16,2.83,2.83,0,0,0,1.07.66,3.88,3.88,0,0,0,1.29.21,4,4,0,0,0,1.53-.27,5.71,5.71,0,0,0,1.11-.59,4.55,4.55,0,0,0,.74-.58c.19-.18.33-.27.41-.27a.29.29,0,0,1,.17.08l.08.09a4.29,4.29,0,0,1-.76.78,5.48,5.48,0,0,1-2.11,1A4.68,4.68,0,0,1,193.45,146.55Z"/><path class="cls-1" d="M201.53,128.73a11.85,11.85,0,0,1,3.1-2.42,8,8,0,0,1,3.73-.83,6.57,6.57,0,0,1,2.7.5,4.86,4.86,0,0,1,1.88,1.44,6.07,6.07,0,0,1,1.11,2.28,12.13,12.13,0,0,1,.35,3v13.49h-.08c-.2,0-.29-.11-.29-.33l-.13-3.33a22.09,22.09,0,0,1-1.75,1.65,10.25,10.25,0,0,1-1.85,1.26,8.93,8.93,0,0,1-2.11.8,10.17,10.17,0,0,1-2.5.28,6.34,6.34,0,0,1-1.85-.28,4.62,4.62,0,0,1-2.92-2.48,5.26,5.26,0,0,1-.47-2.36,4,4,0,0,1,.81-2.47,6.21,6.21,0,0,1,2.47-1.86,17.3,17.3,0,0,1,4.18-1.22,40.87,40.87,0,0,1,6-.53v-2.62a11,11,0,0,0-.35-2.88,6,6,0,0,0-1.05-2.14,4.39,4.39,0,0,0-1.72-1.35,5.9,5.9,0,0,0-2.42-.47,7.93,7.93,0,0,0-2,.23,8.61,8.61,0,0,0-1.56.57,6.27,6.27,0,0,0-1.2.73c-.34.26-.63.5-.88.72s-.45.41-.61.57-.26.22-.33.22-.12,0-.21-.12Zm12.37,7c-4.37.14-7.63.68-9.76,1.63s-3.19,2.3-3.19,4a5,5,0,0,0,.4,2.11,4.13,4.13,0,0,0,1.07,1.46,4.5,4.5,0,0,0,1.52.86,5.82,5.82,0,0,0,1.75.28,9.22,9.22,0,0,0,2.61-.34,9.81,9.81,0,0,0,2.15-.89,11.31,11.31,0,0,0,1.84-1.3c.56-.49,1.1-1,1.61-1.55Z"/><path class="cls-1" d="M222.61,116.23v30h-.5v-30Z"/><path class="cls-1" d="M257.37,116.23v30h-.13c-.19,0-.29-.11-.29-.33l-.08-4a10.87,10.87,0,0,1-3.33,3.32,7.77,7.77,0,0,1-4.26,1.22,7.41,7.41,0,0,1-6.07-2.55q-2.09-2.55-2.09-7.86a15.08,15.08,0,0,1,.56-4.15,9.84,9.84,0,0,1,1.69-3.36,8,8,0,0,1,2.8-2.25,8.76,8.76,0,0,1,3.91-.82,7.51,7.51,0,0,1,6.79,3.64V116.23Zm-.5,13.56a10.93,10.93,0,0,0-1.41-1.81,6.75,6.75,0,0,0-1.57-1.21,6.6,6.6,0,0,0-1.78-.67,9.44,9.44,0,0,0-2-.21,8.34,8.34,0,0,0-3.73.78,7.42,7.42,0,0,0-2.64,2.16,9.53,9.53,0,0,0-1.57,3.23,14.6,14.6,0,0,0-.52,4q0,5.08,1.95,7.54a6.84,6.84,0,0,0,5.71,2.45,7.54,7.54,0,0,0,4.22-1.27,11.39,11.39,0,0,0,3.37-3.49Z"/><path class="cls-1" d="M279.82,143.81a4.8,4.8,0,0,1-1.06.9,10,10,0,0,1-1.64.87,12.9,12.9,0,0,1-2.07.64,10.41,10.41,0,0,1-2.31.25,9.22,9.22,0,0,1-3.77-.74,7.55,7.55,0,0,1-2.83-2.13,9.9,9.9,0,0,1-1.78-3.42,15.71,15.71,0,0,1-.62-4.58,13.33,13.33,0,0,1,.6-4.11,9.32,9.32,0,0,1,1.75-3.2,7.9,7.9,0,0,1,2.8-2.07,9,9,0,0,1,3.76-.74,8,8,0,0,1,3,.57,6.8,6.8,0,0,1,2.47,1.7,8.23,8.23,0,0,1,1.66,2.76,10.87,10.87,0,0,1,.6,3.76.16.16,0,0,1-.07.15.27.27,0,0,1-.18.05H264.28c0,.2,0,.39,0,.57s0,.37,0,.56a15.3,15.3,0,0,0,.6,4.49,9.24,9.24,0,0,0,1.72,3.27,7.3,7.3,0,0,0,2.69,2,8.56,8.56,0,0,0,3.49.68,10.33,10.33,0,0,0,2.95-.37,11.21,11.21,0,0,0,2.09-.83,8.69,8.69,0,0,0,1.27-.84,1.65,1.65,0,0,1,.52-.37.24.24,0,0,1,.16.08Zm.12-9.71a10.26,10.26,0,0,0-.56-3.51,7.39,7.39,0,0,0-1.55-2.57,6.56,6.56,0,0,0-2.32-1.58,7.55,7.55,0,0,0-2.86-.55,8.86,8.86,0,0,0-3.3.59,7.28,7.28,0,0,0-2.53,1.66,8.37,8.37,0,0,0-1.7,2.6,11.82,11.82,0,0,0-.82,3.36Z"/><path class="cls-1" d="M301.71,125.81l-8.88,20.41h-.37l-8.87-20.41h.29a.33.33,0,0,1,.25.09,1.06,1.06,0,0,1,.12.2l8.13,18.71a1.8,1.8,0,0,1,.16.38c0,.13.08.26.11.39a2.79,2.79,0,0,1,.1-.39,1.84,1.84,0,0,1,.17-.38L301,126.1c.1-.19.22-.29.38-.29Z"/><path class="cls-1" d="M321,143.81a4.5,4.5,0,0,1-1,.9,10,10,0,0,1-1.64.87,13.35,13.35,0,0,1-2.08.64,10.41,10.41,0,0,1-2.31.25,9.26,9.26,0,0,1-3.77-.74,7.59,7.59,0,0,1-2.82-2.13,9.9,9.9,0,0,1-1.78-3.42,15.38,15.38,0,0,1-.62-4.58,13.33,13.33,0,0,1,.6-4.11,9,9,0,0,1,1.75-3.2,7.81,7.81,0,0,1,2.8-2.07,9,9,0,0,1,3.76-.74,8,8,0,0,1,3,.57,6.88,6.88,0,0,1,2.47,1.7,8.05,8.05,0,0,1,1.65,2.76,10.63,10.63,0,0,1,.61,3.76.16.16,0,0,1-.08.15.23.23,0,0,1-.17.05H305.5c0,.2,0,.39,0,.57v.56a15.3,15.3,0,0,0,.6,4.49,9.08,9.08,0,0,0,1.72,3.27,7.35,7.35,0,0,0,2.68,2,8.59,8.59,0,0,0,3.49.68,10.36,10.36,0,0,0,3-.37,11.09,11.09,0,0,0,2.08-.83,7.71,7.71,0,0,0,1.27-.84,1.78,1.78,0,0,1,.52-.37.27.27,0,0,1,.17.08Zm.13-9.71a10.26,10.26,0,0,0-.56-3.51A7.41,7.41,0,0,0,319,128a6.47,6.47,0,0,0-2.32-1.58,7.53,7.53,0,0,0-2.85-.55,8.86,8.86,0,0,0-3.3.59,7.28,7.28,0,0,0-2.53,1.66,8.2,8.2,0,0,0-1.7,2.6,11.5,11.5,0,0,0-.82,3.36Z"/><path class="cls-1" d="M328.47,116.23v30H328v-30Z"/><path class="cls-1" d="M344,125.48a9,9,0,0,1,3.81.76,7.88,7.88,0,0,1,2.8,2.13,9.43,9.43,0,0,1,1.72,3.32,15,15,0,0,1,.58,4.33,14.81,14.81,0,0,1-.58,4.3,9.42,9.42,0,0,1-1.72,3.3,7.5,7.5,0,0,1-2.8,2.11,10.23,10.23,0,0,1-7.64,0,7.54,7.54,0,0,1-2.79-2.11,9.59,9.59,0,0,1-1.72-3.3,15.16,15.16,0,0,1-.58-4.3,15.38,15.38,0,0,1,.58-4.33,9.6,9.6,0,0,1,1.72-3.32,7.93,7.93,0,0,1,2.79-2.13A9.06,9.06,0,0,1,344,125.48Zm0,20.57a8.76,8.76,0,0,0,3.66-.72,7.3,7.3,0,0,0,2.64-2,8.9,8.9,0,0,0,1.58-3.17,15,15,0,0,0,.53-4.1,15.23,15.23,0,0,0-.53-4.12,9,9,0,0,0-1.58-3.19,7.3,7.3,0,0,0-2.64-2.08,9.47,9.47,0,0,0-7.34,0,7.23,7.23,0,0,0-2.62,2.08,9,9,0,0,0-1.59,3.19,15.23,15.23,0,0,0-.53,4.12,15,15,0,0,0,.53,4.1,8.92,8.92,0,0,0,1.59,3.17,7.23,7.23,0,0,0,2.62,2A8.75,8.75,0,0,0,344,146.05Z"/><path class="cls-1" d="M359.81,130a10.87,10.87,0,0,1,3.33-3.32,7.76,7.76,0,0,1,4.25-1.22,7.43,7.43,0,0,1,6.07,2.55q2.1,2.55,2.1,7.86a14.63,14.63,0,0,1-.57,4.16,10.08,10.08,0,0,1-1.7,3.35,8,8,0,0,1-2.8,2.25,8.7,8.7,0,0,1-3.89.82,7.51,7.51,0,0,1-6.79-3.64v10.89h-.5V125.81h.13c.19,0,.29.11.29.33Zm0,12.14a7.28,7.28,0,0,0,6.79,3.89,8.34,8.34,0,0,0,3.73-.78,7.37,7.37,0,0,0,2.64-2.15,9.53,9.53,0,0,0,1.57-3.23,14.66,14.66,0,0,0,.52-4q0-5.08-1.95-7.54a6.85,6.85,0,0,0-5.72-2.46,7.55,7.55,0,0,0-4.21,1.28,11.39,11.39,0,0,0-3.37,3.49Z"/><path class="cls-1" d="M382,146.22V125.81h.13c.19,0,.29.11.29.33l.06,3.86a10.24,10.24,0,0,1,2.9-3.29,6.18,6.18,0,0,1,3.7-1.23,4.94,4.94,0,0,1,3.85,1.52,7.6,7.6,0,0,1,1.71,4.33,8,8,0,0,1,.87-2.58,6.32,6.32,0,0,1,1.49-1.83,5.86,5.86,0,0,1,1.95-1.09,7.15,7.15,0,0,1,2.21-.35,6.46,6.46,0,0,1,2.61.5,5.3,5.3,0,0,1,2,1.47,6.83,6.83,0,0,1,1.26,2.4,11.39,11.39,0,0,1,.44,3.29v13.08h-.5V133.14a8.35,8.35,0,0,0-1.51-5.38,5.19,5.19,0,0,0-4.28-1.87,6.36,6.36,0,0,0-2.36.46,5.71,5.71,0,0,0-2,1.37,6.62,6.62,0,0,0-1.4,2.26,8.9,8.9,0,0,0-.52,3.16v13.08h-.5V133.14a12.32,12.32,0,0,0-.34-3,6.82,6.82,0,0,0-1-2.28,4.53,4.53,0,0,0-1.68-1.43,5.21,5.21,0,0,0-2.29-.49,5.85,5.85,0,0,0-3.63,1.26,11.24,11.24,0,0,0-2.91,3.49v15.58Z"/><path class="cls-1" d="M429.62,143.81a4.5,4.5,0,0,1-1.05.9,10,10,0,0,1-1.64.87,12.9,12.9,0,0,1-2.07.64,10.44,10.44,0,0,1-2.32.25,9.26,9.26,0,0,1-3.77-.74A7.59,7.59,0,0,1,416,143.6a9.9,9.9,0,0,1-1.78-3.42,15.38,15.38,0,0,1-.62-4.58,13.33,13.33,0,0,1,.6-4.11,9.16,9.16,0,0,1,1.75-3.2,7.81,7.81,0,0,1,2.8-2.07,9,9,0,0,1,3.76-.74,8,8,0,0,1,3,.57,6.88,6.88,0,0,1,2.47,1.7,8.05,8.05,0,0,1,1.65,2.76,10.63,10.63,0,0,1,.61,3.76.18.18,0,0,1-.07.15.27.27,0,0,1-.18.05H414.09q0,.3,0,.57c0,.18,0,.37,0,.56a15.3,15.3,0,0,0,.6,4.49,9.24,9.24,0,0,0,1.72,3.27,7.3,7.3,0,0,0,2.69,2,8.54,8.54,0,0,0,3.48.68,10.36,10.36,0,0,0,3-.37,11.09,11.09,0,0,0,2.08-.83,7.71,7.71,0,0,0,1.27-.84,1.76,1.76,0,0,1,.53-.37.24.24,0,0,1,.16.08Zm.13-9.71a10.26,10.26,0,0,0-.56-3.51,7.39,7.39,0,0,0-1.55-2.57,6.51,6.51,0,0,0-2.33-1.58,7.5,7.5,0,0,0-2.85-.55,8.86,8.86,0,0,0-3.3.59,7.28,7.28,0,0,0-2.53,1.66,8.37,8.37,0,0,0-1.7,2.6,11.5,11.5,0,0,0-.82,3.36Z"/><path class="cls-1" d="M436.81,130.06a12.14,12.14,0,0,1,1.59-1.9,10.08,10.08,0,0,1,1.91-1.44,9.48,9.48,0,0,1,2.15-.92,8.11,8.11,0,0,1,2.31-.32,6.21,6.21,0,0,1,5.07,2,8.57,8.57,0,0,1,1.67,5.64v13.08H451V133.14a11.38,11.38,0,0,0-.37-3,6.14,6.14,0,0,0-1.16-2.28,5.1,5.1,0,0,0-2-1.43,7.31,7.31,0,0,0-2.76-.49,8.13,8.13,0,0,0-4.42,1.28,11.82,11.82,0,0,0-3.54,3.51v15.54h-.5V125.81h.13c.19,0,.29.11.29.33Z"/><path class="cls-1" d="M463.76,146.55a3.9,3.9,0,0,1-2.81-1,4.34,4.34,0,0,1-1-3.23V127.1h-3.38c-.19,0-.29-.07-.29-.21v-.12l3.67-.08.17-8.21a.35.35,0,0,1,0-.2.16.16,0,0,1,.15-.09h.13v8.5h6.95v.41h-6.95v15.25a5.31,5.31,0,0,0,.26,1.76,2.87,2.87,0,0,0,.72,1.16,2.79,2.79,0,0,0,1.06.66,3.88,3.88,0,0,0,1.29.21,4,4,0,0,0,1.53-.27,6.13,6.13,0,0,0,1.12-.59,5.63,5.63,0,0,0,.74-.58c.18-.18.32-.27.4-.27a.27.27,0,0,1,.17.08l.08.09a4.29,4.29,0,0,1-.76.78,4.93,4.93,0,0,1-1,.62,5.35,5.35,0,0,1-1.12.41A4.81,4.81,0,0,1,463.76,146.55Z"/></g></g></svg>